<?xml version="1.0" encoding="UTF-8" standalone="no"?>
<!-- Created with Inkscape (http://www.inkscape.org/) -->

<svg
   xmlns:freecad="http://www.freecadweb.org/wiki/index.php?title=Svg_Namespace"
   xmlns:dc="http://purl.org/dc/elements/1.1/"
   xmlns:cc="http://creativecommons.org/ns#"
   xmlns:rdf="http://www.w3.org/1999/02/22-rdf-syntax-ns#"
   xmlns:svg="http://www.w3.org/2000/svg"
   xmlns="http://www.w3.org/2000/svg"
   xmlns:sodipodi="http://sodipodi.sourceforge.net/DTD/sodipodi-0.dtd"
   xmlns:inkscape="http://www.inkscape.org/namespaces/inkscape"
   width="841"
   height="594"
   viewBox="0 0 841 594"
   id="svg2"
   version="1.1"
   inkscape:version="0.91 r13725"
   sodipodi:docname="folha A1.svg">
  <sodipodi:namedview
     id="base"
     pagecolor="#ffffff"
     bordercolor="#666666"
     borderopacity="1.0"
     inkscape:pageopacity="0.0"
     inkscape:pageshadow="2"
     inkscape:zoom="1.4"
     inkscape:cx="431.4551"
     inkscape:cy="293.87064"
     inkscape:document-units="px"
     inkscape:current-layer="layer1"
     showgrid="false"
     units="px"
     inkscape:window-width="1920"
     inkscape:window-height="1053"
     inkscape:window-x="0"
     inkscape:window-y="0"
     inkscape:window-maximized="1"
     inkscape:snap-global="true"
     showguides="true"
     inkscape:guide-bbox="true"
     inkscape:snap-nodes="true"
     inkscape:snap-bbox="true"
     inkscape:snap-grids="false">
    <inkscape:grid
       spacingy="10"
       spacingx="10"
       snapvisiblegridlinesonly="true"
       enabled="true"
       visible="true"
       empspacing="5"
       id="grid2985"
       type="xygrid" />
    <sodipodi:guide
       id="guide4138"
       orientation="1,0"
       position="832.23943,588.41386" />
    <sodipodi:guide
       id="guide4140"
       orientation="0,1"
       position="809.19643,584.55357" />
    <sodipodi:guide
       id="guide4142"
       orientation="0,1"
       position="-5.4295699,9.0282384" />
    <sodipodi:guide
       id="guide4144"
       orientation="1,0"
       position="9.0913729,568.71588" />
    <sodipodi:guide
       id="guide4164"
       orientation="1,0"
       position="775.16581,589.42401" />
  </sodipodi:namedview>
  <defs
     id="defs4" />
  <metadata
     id="metadata7">
    <rdf:RDF>
      <cc:Work
         rdf:about="">
        <dc:format>image/svg+xml</dc:format>
        <dc:type
           rdf:resource="http://purl.org/dc/dcmitype/StillImage" />
        <dc:title />
      </cc:Work>
    </rdf:RDF>
  </metadata>
  <g
     transform="translate(0,-458.36202)"
     id="layer1"
     inkscape:groupmode="layer"
     inkscape:label="Layer 1">
    <path
       inkscape:connector-curvature="0"
       id="path3217"
       d="m 19.090601,467.91479 -10.087962,0 0,10.08796"
       style="fill:none;stroke:#000235;stroke-width:0.60527778;stroke-linecap:butt;stroke-linejoin:miter;stroke-miterlimit:4;stroke-dasharray:none;stroke-opacity:1" />
    <path
       inkscape:connector-curvature="0"
       id="path3219"
       d="m 822.14544,467.91479 10.08796,0 0,10.08796"
       style="fill:none;stroke:#000235;stroke-width:0.60527778;stroke-linecap:butt;stroke-linejoin:miter;stroke-miterlimit:4;stroke-dasharray:none;stroke-opacity:1" />
    <path
       inkscape:connector-curvature="0"
       id="path3215"
       d="m 9.002639,1033.2714 0,10.088 10.087962,0"
       style="fill:none;stroke:#000235;stroke-width:0.60527778;stroke-linecap:butt;stroke-linejoin:miter;stroke-miterlimit:4;stroke-dasharray:none;stroke-opacity:1" />
    <g
       transform="matrix(0.22628081,0,0,0.22628081,638.83405,799.73199)"
       id="g4160">
      <rect
         style="color:#000000;clip-rule:nonzero;display:inline;overflow:visible;visibility:visible;opacity:1;isolation:auto;mix-blend-mode:normal;color-interpolation:sRGB;color-interpolation-filters:linearRGB;solid-color:#000000;solid-opacity:1;fill:#000000;fill-opacity:1;fill-rule:evenodd;stroke:#000000;stroke-width:1;stroke-linecap:butt;stroke-linejoin:miter;stroke-miterlimit:4;stroke-dasharray:none;stroke-dashoffset:0;stroke-opacity:1;marker:none;marker-start:none;marker-mid:none;marker-end:none;color-rendering:auto;image-rendering:auto;shape-rendering:auto;text-rendering:auto;enable-background:accumulate"
         id="rect4409-6"
         width="251.19089"
         height="244.54779"
         x="603.69025"
         y="831.36908"
         rx="0"
         ry="0" />
      <path
         style="font-style:normal;font-variant:normal;font-weight:normal;font-stretch:normal;font-size:medium;line-height:125%;font-family:'Cocaine Sans';-inkscape-font-specification:'Cocaine Sans';letter-spacing:0px;word-spacing:0px;fill:#ffffff;fill-opacity:1;stroke:none;stroke-width:1px;stroke-linecap:butt;stroke-linejoin:miter;stroke-opacity:1"
         d="m 696.03475,829.73574 c 0,0.49603 -2.57828,0.84376 -7.73695,1.04217 l 0,1.19041 6.24856,-0.59595 9.82128,0 0,-1.04068 -5.6541,0 -2.67879,-0.59595 z m -44.04679,0.59595 -31.10049,0.44622 -17.26174,0 0,1.19041 0.59446,0.59447 7.73843,-0.59447 1.04217,0 0.59447,-0.59595 0.44622,0.59595 14.13672,0 0.44622,-0.59595 0.59595,0.59595 45.08895,0 0,-1.19041 -2.08285,-0.44622 -5.80383,0.44622 -14.43468,-0.44622 z m 64.87976,0.44622 0,1.19041 3.63054,0 -0.35579,0.44622 0,0.59447 0.59447,0.74419 2.53056,-0.74419 9.96953,0.74419 5.6541,0 4.46516,0.7442 0.59446,-0.7442 2.53056,0.7442 10.71372,0 0,-1.48839 -4.46368,0 -0.59595,0.74419 c -1.17341,-0.86462 -5.43021,-1.45864 -12.75506,-1.78488 l 0.4047,0 0,-1.19041 -9.97101,0 0,0.93988 c -0.99633,-0.0129 -2.06283,-0.0195 -3.12502,-0.0267 l 0,-0.9132 -9.82129,0 z m 30.65427,0 0,1.19041 5.20936,0 0,-1.19041 -5.20936,0 z m 10.86346,0.59446 0,1.19042 9.96953,0 0,-1.19042 -9.96953,0 z m 11.01169,0 0,1.19042 8.7806,0 0,-1.19042 -8.7806,0 z m 10.86346,0 0,1.19042 5.20787,0 0,-1.19042 -5.20787,0 z m 11.45792,0 0,1.19042 10.86345,0 0,-1.19042 -10.86345,0 z m -33.33307,1.63664 0,1.48839 7.5887,0 0,-1.48839 -7.5887,0 z m -55.20823,0.74419 -1.93461,2.08434 c 0,3.7698 4.61415,13.04415 13.84024,27.82574 0.89285,0 1.33866,-0.69397 1.33866,-2.08286 3.869,0 6.99414,-2.08342 9.37506,-6.25004 l 0,-1.33865 c 0,-0.89285 -0.64493,-1.34015 -1.93461,-1.34015 l 1.19041,-1.4869 c 0,-1.19047 -2.03289,-2.33175 -6.1003,-3.423 l 0,-3.57124 c -2.97616,-6.05152 -5.70452,-9.07709 -8.18466,-9.07709 l -6.25004,0 -1.34015,-1.34015 z m 63.98735,13.24428 0,0.7442 c 0,1.68648 3.37329,3.52175 10.11925,5.50585 l 0,1.48838 1.19042,0 0,-1.48838 -6.84451,-4.91139 -1.93461,0.7442 -2.53055,-2.08286 z m 52.23292,0.7442 -1.34014,1.33866 0,0.74419 0.74419,0 1.19042,-1.48839 0,-0.59446 -0.59447,0 z m 28.86791,2.6788 -1.19042,1.48838 0.59595,0 1.19041,-1.48838 -0.59594,0 z m -76.3377,2.08286 -1.04217,1.04217 0,0.59446 0.59447,0 1.04217,-1.04069 0,-0.59594 -0.59447,0 z m 73.21268,0.74419 -13.83875,11.90414 3.12502,0 0,0.74419 c -1.68649,0.19842 -2.53056,0.89239 -2.53056,2.08285 5.45629,-1.9841 8.18465,-4.11656 8.18465,-6.39829 0,-1.09125 1.88578,-3.62049 5.65558,-7.58869 l 0,-0.7442 -0.59594,0 z m 9.83759,1.95684 -1.057,0.87021 c -4.16662,2.57933 -7.73905,6.30036 -10.7152,11.16142 l 0.74419,0 c 1.88489,0 4.8109,-1.88577 8.77912,-5.65558 l 0,-0.59446 -0.74271,-0.7442 2.9916,-2.20441 0,-2.83298 z m -75.16359,0.12601 1.78487,3.57125 1.34015,-1.48691 -1.93461,-2.08434 -1.19041,0 z m 60.26636,0 -1.19041,1.48839 0,0.59595 0.59595,0 1.19041,-1.34014 0,-0.7442 -0.59595,0 z m -14.43469,3.57125 -1.19041,1.34013 0.59594,0 1.19042,-1.34013 -0.59595,0 z m 5.05963,0 c -2.28172,0 -3.76925,0.8931 -4.46368,2.67879 2.28172,0 3.76925,-0.8931 4.46368,-2.67879 z m -70.38562,0.59594 -1.93461,2.08285 0,0.7442 1.34013,0 1.19042,-1.33866 0,-0.7442 -0.59594,-0.74419 z m 56.54688,0.74419 c -4.76186,2.77775 -7.88699,4.16571 -9.37507,4.16571 -1.19046,1.58729 -3.91883,3.47306 -8.18465,5.65558 0.29762,1.38887 1.53845,2.08285 3.72097,2.08285 0.79364,0 1.19042,-1.38944 1.19042,-4.16719 l 3.86921,1.34014 1.93461,0 c 0.39682,-2.77774 1.43852,-4.16718 3.12502,-4.16718 l 0,-0.7442 -0.7442,-0.74419 4.46369,-2.08286 0,-1.33866 z m 3.12502,2.08286 -3.7195,2.82705 1.19042,1.34014 0.59447,0 c 0.89284,0 1.34014,-0.69546 1.34014,-2.08434 1.68649,0 2.52907,-0.44581 2.52907,-1.33866 l 0,-0.74419 -0.59594,0.74419 -0.74272,0 -0.59594,-0.74419 z m -42.70814,0.74419 c -2.28172,0 -3.76924,0.94215 -4.46368,2.82705 l 1.33866,1.34014 2.53055,0 1.78489,-2.08433 0,-0.7442 -1.19042,-1.33866 z m -31.39846,0.59447 -1.33866,1.48839 0,1.34014 0.7442,0 1.19041,-1.34014 0,-1.48839 -0.59595,0 z m 77.23161,0.74419 c -7.34118,3.6706 -12.99555,7.83744 -16.96376,12.50009 l 0,0.74419 0.59447,3.57125 -0.59447,0.59595 0,0.74418 0.59447,0 1.9346,-1.34013 1.34015,0 -1.34015,5.50584 3.12502,-3.42151 0.59595,0 0.7442,0.59447 c 0,-1.38888 0.39677,-2.08286 1.19041,-2.08285 l 3.71949,0 0,0.74418 -1.78489,2.82705 0.59448,0 c 2.57933,-2.77774 4.4651,-4.16718 5.65557,-4.16718 l 1.93313,0 0,0.59595 -0.74271,0 -3.12503,2.08285 0,1.48838 c 4.96026,-2.77774 8.33209,-4.16718 10.11778,-4.16718 l 0.59595,0 0,0.59595 -0.59595,0.74418 1.19041,0 0.7442,-0.74418 0,0.74418 22.33768,-1.69148 0,-1.87975 -2.9916,0 -0.59596,-0.59595 0,0.59595 -3.71948,-1.34015 -0.59595,0 -0.74419,0.7442 -2.38083,-0.7442 1.19042,-1.33866 0,-0.74419 -0.59448,-0.7442 -3.12501,3.57125 -3.12502,-0.7442 -0.7442,2.08286 -3.12502,0 -1.19042,-3.42152 c 0.29762,-1.48807 2.57869,-3.37386 6.84451,-5.65557 l 3.86922,0.74419 1.78636,-0.74419 c 0,-0.89285 -1.24084,-1.33867 -3.72097,-1.33867 l 0,-0.74419 0.59595,-0.59595 c -2.48014,0 -6.64697,2.08342 -12.50008,6.25005 l 0,-0.74419 -1.34015,0 0,-0.74272 0.59595,-0.59595 0,-0.74419 -3.12502,2.08286 -0.59595,-0.74272 -1.93312,0 -0.59596,0.74272 c 0,-1.28968 -0.59589,-2.67762 -1.78635,-4.16572 1.78569,0 3.02653,-0.94214 3.72096,-2.82704 l -1.33865,0 -1.78637,1.4869 -0.59594,0 c 0,-1.38887 0.59589,-2.08285 1.78635,-2.08285 l 0,-1.48839 z m 6.99425,1.48839 c -1.6865,0 -2.97637,0.89311 -3.86922,2.6788 l 0,0.74419 c 2.57933,-1.09125 3.86922,-2.03339 3.86922,-2.82704 l 0,-0.59595 z m -53.42187,2.08285 -1.34014,1.34014 0,0.7442 1.93461,0 0.59595,-0.7442 -1.19042,-1.34014 z m 9.96954,0 -0.59447,0.59595 1.19042,1.48839 0.74418,0 0.59448,-0.7442 -1.33866,-1.34014 -0.59595,0 z m -69.04697,1.34014 0.74419,3.423 1.19042,0 0,-3.423 -1.93461,0 z m 78.57028,1.33867 c -2.57934,0.49602 -3.86774,1.19148 -3.86774,2.08433 l 1.33866,2.82705 0,0.74419 c 0.99205,0 2.43054,-1.19031 4.31544,-3.57124 l 0.59446,0 -1.19041,2.08285 1.93461,0 0,-4.16718 -1.93461,0.74419 -0.59447,0 -0.59594,-0.74419 z m -166.06939,1.19041 0,1.19042 2.08433,0.59594 0,0.44622 -0.4477,0.59595 0,5.05815 0.89392,0 -0.89392,1.04217 0.4477,2.23257 -1.04216,12.20212 0.59446,0.59446 -3.57124,0.4477 0,1.19042 2.97678,0.59447 0.59446,0 0.4477,-0.59447 0.44622,2.82705 0,1.63663 -0.89392,3.27327 0.89392,26.6368 1.04069,0 0.59595,-5.50584 0,-1.63663 -0.59595,-20.0888 0,-0.44622 0.59595,0 c 0,2.97616 0.49633,4.46369 1.48838,4.46369 l 0,7.73843 -0.44622,0.44621 0.44622,0 0.59447,0.59447 -1.04069,15.03064 c 0,0.69444 1.7357,1.04069 5.20788,1.04069 l 0,0.59595 -3.72097,0 c -1.38888,2.08331 -2.08285,3.91856 -2.08285,5.50584 l 1.04217,1.78489 c 2.77774,0.79364 4.1657,2.23212 4.1657,4.31543 l 0.59595,-0.44622 2.08285,0 0,0.44622 -1.63663,0 0,1.19041 0.59447,0.59595 -5.20788,0 0,1.04217 1.48839,0.59447 3.71949,-1.19042 2.08433,1.63664 8.3329,0 0.44621,-0.44622 0.59595,0.44622 3.57124,0 0,-1.04069 0.59446,0 0,1.04069 -0.59446,0.59595 2.6788,0 2.97529,-0.59595 1.63664,0.59595 0.44622,0 -0.44622,-2.67881 0,-16.21957 1.04217,-10.41723 c -0.59524,0 -0.94297,-0.94215 -1.04217,-2.82705 l 0,-12.20211 1.48839,-12.20211 -12.94631,-8.33438 0,-2.23111 1.63664,0 c -0.69444,-0.89285 -1.04069,-2.18272 -1.04069,-3.86921 l -0.59595,0 c -0.69444,0 -1.04217,0.54537 -1.04217,1.63664 l -0.44621,0 -0.59447,-0.59448 -0.44623,0 0.44623,2.82705 0,1.04069 -8.33289,-3.86774 -10.26899,-8.33437 -1.63663,0 z m 127.67817,0.29797 -1.19041,1.33867 1.78488,0 0,-0.74272 -0.59447,-0.59595 z m 47.17181,0 -3.86921,2.08286 0,1.34014 4.46368,-2.08433 0,-0.74272 -0.59447,-0.59595 z m -178.42122,0.29798 -0.44623,0.59447 0.44623,1.63811 -2.08286,0.59446 0,0.59595 1.04069,0 0,0.44622 -0.44622,0 -3.71949,-1.63663 -2.08285,0 -1.04217,1.19041 c 0,1.09126 2.7774,1.63664 8.3329,1.63664 1.09125,0 1.63663,-0.39678 1.63663,-1.19042 l 0,-2.6788 -1.04069,-1.19041 -0.59594,0 z m 151.93267,0.29797 0,0.74272 c 0,0.89284 0.64494,1.34013 1.9346,1.34013 l 0,1.48839 -2.52907,0.59447 0,0.74419 0.59447,0.7442 5.65557,-1.48839 0,-1.33866 -5.65557,-2.82705 z m 32.14265,1.48691 0,0.59594 -1.33866,1.48839 -1.19041,0 c 0,-0.69444 0.84258,-1.3899 2.52907,-2.08433 z m -201.18734,1.04216 c -3.47218,0 -5.20936,0.54538 -5.20936,1.63664 l 0,0.59595 0.44622,0.44622 9.37507,-1.04217 0,-1.04069 -0.44622,-0.59595 -3.71949,1.04217 0,-0.44622 -0.44622,-0.59595 z m 222.46654,1.04217 0.7442,0 0,1.33866 c -0.39682,1.38888 -1.68671,2.08286 -3.86922,2.08286 l 0,-1.33866 3.12502,-2.08286 z m -32.58887,0.59447 -1.33866,1.48839 0.59446,0 1.34015,-1.48839 -0.59595,0 z m -10.71372,1.48839 c -1.58729,0 -3.27394,0.94214 -5.05964,2.82705 1.7857,3.17456 3.27471,4.76165 4.46516,4.76165 3.27379,-0.69444 4.90991,-2.28152 4.90991,-4.76165 l 1.33866,0 0,-1.48839 -3.71949,-1.33866 -1.9346,0 z m -85.71276,0.74419 -1.63813,1.63664 0,1.19041 0.59596,0 2.08285,-1.19041 0,-0.59448 -1.04068,-1.04216 z m 59.96839,2.08286 c -3.6706,3.67059 -6.84477,5.50585 -9.52332,5.50584 l -8.03491,0 0,-1.33866 c -1.6865,0 -2.53056,-0.69398 -2.53056,-2.08285 l -1.33866,0 -0.59595,2.67732 0.59595,0.74419 0,0.74419 -1.19042,-1.48838 c -0.89284,0 -1.34013,0.69546 -1.34013,2.08434 l -1.78489,0 -5.05962,2.08285 -0.59596,0 -0.7427,-0.59595 c -1.19047,0 -1.78637,0.4473 -1.78637,1.34014 l 0,0.7442 1.19042,0 -1.78637,2.08285 -3.86773,0 0,1.33866 3.12502,0 c -0.19841,3.27378 -0.79431,4.91138 -1.78636,4.91138 l 1.78636,20.23852 -1.19041,6.99276 0.59446,2.67879 0,7.12174 -6.99423,-3.99671 c 0,-5.7539 -1.04171,-8.92808 -3.12503,-9.52331 l -0.44621,0 -0.59447,0.59446 0,-2.82704 -1.04217,0 -0.44622,0.59595 0,0.59446 0.44622,0.44622 -8.24098,-4.37177 2.88338,-2.47274 0,-0.74419 -0.59447,-0.7442 -3.12502,1.48839 0.59447,0.59447 -0.59447,0.74419 0,0.68935 -5.50585,-2.92045 c -3.17456,-3.17457 -7.14228,-6.10206 -11.90413,-8.7806 l -0.44771,0 0,1.63664 5.05963,2.23258 0,0.44622 -0.44622,0 c -0.49603,0 -1.0414,4.2664 -1.63663,12.79806 0,1.28966 -1.68665,3.32257 -5.05963,6.10032 1.68649,0 3.37314,-0.54538 5.05963,-1.63664 l 0.59446,0 -0.59446,34.37524 1.04216,1.19041 0.59447,0 c 0,7.34118 -0.34773,11.0117 -1.04217,11.0117 -4.16661,12.59907 -8.67971,18.89838 -13.54077,18.89838 l -4.61341,-1.63664 c -6.64675,-3.96821 -9.96953,-9.5245 -9.96953,-16.66728 l 0,-12.20211 1.04069,-4.46368 -1.04069,-1.63663 0,-0.59595 1.63664,0 0,-1.04069 -4.1672,-2.23257 -0.44622,0 -0.59446,0.59446 c 0,-1.88489 -0.49634,-2.82705 -1.48839,-2.82705 l -1.04217,1.04217 -0.59446,0 -0.44622,-0.44622 -1.63811,0 c -0.69444,0 -1.04069,0.54538 -1.04069,1.63664 l -1.04217,0 -0.44621,-0.59596 -1.04217,1.19042 c -0.29762,-1.88489 -0.84299,-2.82705 -1.63664,-2.82705 l -1.04068,0 -2.53056,1.63663 c 0,-1.09125 -0.34773,-1.63663 -1.04217,-1.63663 l -2.08285,0 c -0.69444,0 -1.04216,0.54538 -1.04216,1.63663 l -0.59447,0 c 0,-0.79363 -0.69398,-1.53665 -2.08286,-2.23109 l -0.44769,0 c -1.09126,0.29761 -1.98289,1.58749 -2.67732,3.86921 0,2.57934 0.89162,3.86774 2.67732,3.86774 l 0,0.59594 c -1.8849,0 -3.27287,0.54538 -4.16571,1.63663 l -1.04217,-3.27326 c -0.59523,0 -1.09156,1.09075 -1.48839,3.27326 l 0.4477,5.05964 0,4.46368 0.44622,2.67879 -1.48838,1.19042 2.08285,6.69627 c 0,4.86105 4.51457,12.2526 13.54225,22.17316 1.38887,3.2737 5.90196,6.9442 13.54076,11.0117 l 0,0.5944 -3.12502,3.8692 0,0.596 1.48839,0 2.53056,-3.8692 12.4986,4.9099 11.4594,-1.0407 11.45792,0 2.52907,-0.596 2.67881,0.596 0,0.5945 -0.59596,0.4462 0,0.5959 2.67881,0.4462 -0.59446,2.8271 c 0,1.2897 -1.88578,2.2333 -5.65558,2.8285 l 0,1.0407 4.61341,0 0,0.596 -1.04218,0 0,1.0406 0.59596,0.596 -1.04217,2.2326 0.44621,0.5944 0,7.1425 1.04218,1.6367 0,3.4229 1.04217,0 0.59446,-0.5944 0,1.0407 1.48839,-0.4463 3.12502,1.0422 c 0,-0.6944 0.54537,-1.0422 1.63664,-1.0422 l 0,-1.1904 -1.04069,0 -3.72097,0.596 0,-0.596 -0.44622,-0.5944 c 2.77775,-0.2976 4.16719,-0.8445 4.16719,-1.6381 l 0,-0.4463 -0.59595,-0.5944 0.59595,-0.596 -1.63812,-1.6366 -2.52907,0.5959 0,-1.1904 0.59594,-0.5959 0.14825,0 1.93461,-2.2326 0,-1.3387 -2.03393,2.2726 -0.64487,-1.3801 2.52907,-1.6367 0,-1.1904 c -1.68648,0 -2.52907,-0.3477 -2.52907,-1.0421 l 0,-0.5945 c 1.58728,0 2.62899,-0.7445 3.12502,-2.2326 l 0,-0.5945 -0.59595,-0.4462 c -0.99205,0 -1.48691,-0.3982 -1.48691,-1.1919 l 0,-3.2732 1.04069,0 0,-1.1905 -1.04069,0 1.04069,-1.0421 10.2675,2.2326 0.59596,0 0.44621,-0.5945 c 6.05152,0.7936 9.72203,1.7358 11.0117,2.827 l 0.44622,0 2.6788,-0.5959 -0.59446,0.5959 c 0,0.7937 1.93334,1.3391 5.80234,1.6367 l 0,-0.596 c 0,-1.3889 -8.48081,-3.7695 -25.44491,-7.1425 l 0,-0.5944 3.57124,-0.4462 3.12503,0 c 0,-1.0913 0.84257,-1.6382 2.52907,-1.6382 l 6.31527,0 c 0.45665,2.1755 1.66854,3.2748 3.65425,3.2748 l 8.7806,0 1.78488,-2.0843 0,-2.0829 -1.78488,-4.1657 1.19042,0 0,-1.3401 -5.05963,-0.7442 0,-0.7442 c 3.27377,0 5.15807,-0.8917 5.65409,-2.6774 0,-3.1745 -0.79354,-8.285 -2.38082,-15.32858 l 3.12502,-27.23127 0,-4.9099 0.59595,-0.74419 -4.46516,-0.59595 0,-0.74419 14.43468,-1.33867 0.7442,0 0,-1.48838 -2.52907,0 -0.59595,0.7442 -0.74419,-0.7442 -6.84451,0 0,-7.3441 c 1.66574,-0.59719 2.52907,-1.22347 2.52907,-1.88124 l -2.52907,-2.23258 0,-6.54802 3.71948,-0.74419 0,-2.08286 -2.52907,0 c 0,-0.89284 1.48753,-2.28229 4.46368,-4.16718 l 0,-0.7442 -0.59447,-0.74271 -5.05962,3.57124 -0.59595,0 -1.33866,-9.07709 1.93461,-2.82853 0,-9.07709 1.19041,-2.82705 3.12502,2.23259 0.74419,-0.7442 6.25005,0 0.59446,0.7442 0.59595,-0.7442 12.05239,0 0.59594,8.3329 0,20.98271 -3.12502,0.59447 0,1.48839 3.12502,-0.7442 0,14.58294 -8.77912,0 0,1.48838 3.12355,0.59447 1.19041,-1.33865 2.53055,2.08285 1.33867,0 0.59594,-0.7442 2.52908,5.65558 -0.7442,4.9099 1.34015,17.41147 c -0.39683,16.56728 -1.43854,25.59493 -3.12503,27.08303 l 0,1.4869 0.59447,0.596 -0.59447,0 0.59447,9.077 0,0.596 1.19041,0 0.7442,-2.6788 3.12502,0.7442 10.71521,0 1.78488,-2.0844 c 1.28967,0 1.93461,-0.4458 1.93461,-1.3386 l 9.37506,0 0,-1.4884 -10.71372,0 0.74418,-3.423 0,-0.7427 -0.74418,-0.7442 4.46368,-0.5959 1.19041,0 0,-1.4884 -1.78488,0 c -3.07536,0 -4.76202,-0.694 -5.05963,-2.0829 l 0,-5.50584 c -0.79364,-8.33325 -1.63771,-13.2446 -2.53056,-14.73267 l 1.34015,-1.33866 c 0.39681,-14.38476 0.99124,-21.57718 1.78488,-21.57718 l 0.59595,-2.08285 -0.59595,-0.7442 0.59595,-3.42299 0.74418,0 0.59448,0.59595 c 1.28966,0 1.9346,-0.89311 1.9346,-2.67881 l 0.59595,0 0.59447,0.59447 0.59594,0 0.59447,-0.59447 0,3.423 1.33866,0 0,-4.91138 2.53055,0.7442 0.59447,0 0.59595,-0.7442 0,0.7442 0.59446,-0.7442 7.59019,0.7442 2.52907,-0.7442 0,-1.33867 -3.12502,-0.74418 -3.71948,0.74418 -3.86922,0 -3.12503,-0.74418 -0.59594,0.74418 -0.59447,-0.74418 -1.33866,0 -1.19041,1.48838 -1.34014,-1.48838 -3.12502,1.48838 -0.59447,0 0,-8.48262 0.59447,-3.423 -0.59447,-0.74419 c 0.99206,-2.28172 2.03376,-3.42151 3.12502,-3.42151 l -0.59594,-2.08434 c 3.7698,-2.77774 5.65409,-5.55515 5.65409,-8.3329 l -0.59447,-4.9099 c 1.68649,0 2.52908,-0.94363 2.52908,-2.82853 2.48012,-4.76186 3.72097,-8.23324 3.72097,-10.41575 l 1.93461,0 c 0,1.8849 1.0417,2.82705 3.12501,2.82705 0,2.28172 0.39678,3.42299 1.19042,3.42299 l 0.59447,0 0,-2.08433 -0.59447,-3.42151 0.59447,0.59446 3.27475,-0.59446 3.12502,0 0.59446,0.59446 -0.59446,4.91138 1.78488,0.7442 1.93461,-4.16719 1.9346,0.59594 c 0,1.88491 0.39677,2.82705 1.19042,2.82705 l 0.59594,0 0,-4.91138 c 0.69444,0 1.73615,1.63761 3.12503,4.91138 l 0,14.58294 1.33865,1.48839 c 0.79364,0 1.43859,-1.38944 1.93461,-4.16719 l 0,-0.74419 -1.34014,0 1.93461,-15.32713 1.19041,0 0,5.50584 1.34015,0 0,-4.76165 1.19041,-2.82705 1.33866,1.33866 0.59594,-0.59446 1.78489,0.59446 6.99423,-1.33866 0,-0.74419 c -7.14278,-0.69444 -10.71372,-2.08388 -10.71372,-4.1672 l -1.19041,0 -0.7442,0.7442 -0.59595,-0.7442 c -0.79364,0 -1.19041,0.69547 -1.19041,2.08434 l -0.59447,0 0,-0.74419 0.59447,-2.6788 0,-2.82705 -0.59447,-0.7442 c -0.89285,0 -1.34014,2.33159 -1.34014,6.99424 l -0.59447,0 0,-1.34014 c -1.28967,0 -1.93461,-0.69397 -1.93461,-2.08285 l -1.19041,0 0,2.6788 -0.59594,0 0,-2.08433 -1.33866,0 c 0,1.88489 -0.84259,3.07521 -2.52908,3.57123 l 0,-0.74271 -0.59594,-0.74419 c -1.6865,0.29762 -2.52908,0.9916 -2.52908,2.08285 l -2.53056,-0.59595 -0.59446,0 -0.59595,0.59595 -1.93461,-2.08285 0,2.08285 -2.52907,0 0,-3.423 0.59447,-3.42151 -0.59447,-0.74419 0,-0.7442 0.59447,-0.59594 -0.59447,-4.31544 1.93461,-4.1657 0,-0.59596 -1.34014,1.34015 -0.59447,-0.74419 -1.9346,0.74419 0,5.6541 -0.59596,3.42299 0.59596,2.08285 -1.19042,1.33867 0.59446,3.57123 0,0.59595 -3.71948,-0.59595 -0.59595,0 0.59595,-2.08285 0,-2.08285 c -3.07536,2.97616 -6.00137,4.56325 -8.77912,4.76165 l -0.59595,0 1.19042,-2.6788 0.59594,0 -0.59594,-2.08285 0,-0.7442 0.59594,-0.74419 0,-0.59447 -0.59594,-0.74419 c -1.28967,0.29762 -2.13226,1.23977 -2.52908,2.82705 l 0,0.59447 0.59447,0.74418 -0.59447,0 -0.59594,0.7442 -0.59448,0 0,-0.7442 0.59448,-2.82704 0,-0.59447 -1.93461,0.59447 -0.59447,0 3.71949,-4.16719 c -1.58729,0 -4.06748,1.63761 -7.44046,4.91138 l 0,-0.74419 c 2.97616,-3.67059 5.05959,-5.50585 6.25005,-5.50585 l 0,-1.48839 -0.59448,-0.59446 c -1.98409,0.19841 -4.11804,1.58637 -6.39977,4.1657 l -0.59446,0 -0.59595,-0.74419 3.12502,-3.42151 -1.19041,0 0,-2.82705 c 1.19046,0 2.23217,-0.94363 3.12502,-2.82853 l -1.33866,0 -0.59595,0.74419 c -4.16661,2.48014 -6.25004,4.11774 -6.25004,4.91139 -3.6706,-1.98411 -9.5226,-3.37355 -17.55824,-4.1672 l 3.12355,-5.65408 0,-0.59595 z m 20.68473,10.41723 c 2.18252,0 3.86918,-1.19032 5.05964,-3.57124 -3.37298,1.19046 -5.05964,2.38077 -5.05964,3.57124 z m 14.4347,-8.3329 -5.05963,4.1657 0,0.59596 0.74419,0.74419 6.25005,-5.50585 -1.93461,0 z m 6.99423,0 -3.12501,0.59447 0,1.48838 1.19041,2.08285 1.9346,-2.08285 0,-2.08285 z m 10.71373,2.67732 c -2.18252,0.39682 -3.27327,1.09228 -3.27327,2.08434 l 1.33866,0 1.93461,-2.08434 z m -154.90946,0.29797 4.1672,3.423 1.48838,0 c -1.68649,-2.28172 -3.42218,-3.423 -5.20787,-3.423 l -0.44771,0 z m 157.29029,0.44622 c -2.28172,10e-6 -3.91785,1.14127 -4.9099,3.423 3.27377,-1.09127 4.9099,-2.23253 4.9099,-3.423 z m -20.68474,1.34015 -1.9346,2.08285 1.34013,0 1.19042,-1.33866 0,-0.74419 -0.59595,0 z m 44.64274,0 -1.93461,1.4869 0,0.59595 0.59595,0.74419 1.93461,-2.08285 0,-0.74419 -0.59595,0 z m -50.29683,0.74419 -1.19042,1.33866 0,0.74419 1.19042,0 0.59594,-0.74419 0,-0.59595 -0.59594,-0.74271 z m 8.18465,0.74271 -5.65558,4.16719 1.93461,3.42299 c 2.48012,-1.28966 4.11774,-3.12492 4.91138,-5.50584 l 0,-0.7442 -0.59595,0.7442 -0.59446,0 0.59446,-0.7442 0,-0.74419 -0.59446,-0.59595 z m 20.68473,0 -1.19041,1.34014 0,1.33866 1.19041,1.48839 1.93461,0 1.19042,-1.48839 0,-1.33866 -1.19042,-1.34014 -1.93461,0 z m -9.37506,1.34014 -3.12502,2.82705 0,0.7442 0.59446,0 3.72097,-3.57125 -1.19041,0 z m -142.1114,0.44622 -0.59595,0.59595 1.04217,2.2311 c 1.78569,0.69443 2.67881,1.3899 2.67881,2.08433 0,1.58729 3.27374,4.01697 9.82128,7.29073 l 1.04069,-1.04216 0,-0.59447 -5.6541,-2.82705 0,-2.82705 -7.29221,-4.91138 -1.04069,0 z m 124.55168,3.12503 c -2.57933,0.39681 -3.86921,1.0908 -3.86921,2.08285 l 0,1.34014 c 1.78569,-0.59523 3.07557,-1.73651 3.86921,-3.42299 z m -125.59385,2.38082 0,0.59595 c 0.69444,1.58729 3.1256,3.42254 7.29222,5.50585 l 0.44622,0 0,-0.4477 -6.69627,-5.6541 -1.04217,0 z m -43.60056,1.63664 -1.48839,0.59594 0,1.19042 0.44622,0 1.04217,-1.19042 0,-0.59594 z m 162.20018,2.82705 0,0.74418 -2.52908,2.82705 -1.19041,-2.82705 3.71949,-0.74418 z m -102.52829,3.27474 2.08286,2.2311 0.59595,0 0,-0.44622 -1.63664,-1.78488 -1.04217,0 z m 101.33787,2.38083 c 2.08331,0.29761 3.12503,0.9916 3.12503,2.08286 l -3.12503,1.34013 0,-3.42299 z m -170.38482,0.44622 -2.08286,0.59447 0,1.63811 2.67732,-1.04216 0,-0.59595 -0.59446,-0.59447 z m 142.11138,11.30967 -2.52907,1.48839 0,1.33866 0.59446,0 2.53056,-1.33866 0,-1.48839 -0.59595,0 z m -147.76548,8.63087 -0.59595,0.59447 1.04217,1.19041 1.04069,0 0.59595,-0.59446 -1.04217,-1.19042 -1.04069,0 z m 35.7139,3.86922 1.63663,0 -1.04217,1.19041 -1.63663,0 1.04217,-1.19041 z m 36.9043,0 -0.4477,0.59446 0,0.59595 0.4477,0.59447 1.04069,-1.19042 0,-0.59446 -1.04069,0 z m 66.96263,0.14824 0,2.08286 1.93461,0 1.19041,-1.4869 0,-0.59596 -3.12502,0 z m -115.32633,2.08286 -1.04069,1.19041 0,3.86922 -0.44622,6.69626 0.44622,0 c 0.59524,0 1.14061,-1.28988 1.63664,-3.86921 l -1.04217,-4.01746 c 0.69444,0 1.04217,-1.28988 1.04217,-3.86922 l -0.59595,0 z m 21.42892,0.59595 0.44622,0 0,1.19041 -1.48838,0 1.04216,-1.19041 z m 147.91522,2.82705 0,0.74419 1.19042,1.33866 1.33865,0 0,-2.08285 -2.52907,0 z m -6.25005,4.16718 -1.34013,1.48691 0,0.59595 0.74419,0 1.19041,-1.33866 0,-0.7442 -0.59447,0 z m -164.13478,6.84451 0,0.59595 -0.44622,6.10032 0,0.59594 0.44622,0.59447 1.04069,-1.19041 0,-6.69627 -1.04069,0 z m 94.0753,3.87663 c -0.19773,1.25265 -0.50223,2.1018 -0.92209,2.52166 l 0,17.41147 1.19041,1.48839 -0.59446,5.50585 0.59446,9.07709 -0.59446,13.98698 0.0282,0.2683 -0.77236,0.7739 0.97397,1.1148 0.96064,9.0044 c 0,0.1588 0.0159,0.2944 0.0207,0.4463 l -0.31873,0 c -6.44834,-1.0913 -13.74032,-1.6367 -21.87515,-1.6367 l 0,-2.2325 0.59594,-0.4463 -0.59594,0 c 0,-4.861 1.24084,-7.2922 3.72097,-7.2922 1.28967,-3.67058 3.37309,-7.53874 6.25004,-11.60615 0,-1.09126 2.23203,-4.06779 6.69626,-8.92884 l 0,-0.59596 -3.12501,1.1919 0,-2.23258 2.52907,-20.53501 -1.04217,-2.82853 0,-0.44622 0.59595,-0.59447 -0.59595,-0.59594 1.98798,-0.89245 2.62543,0 1.34014,-1.48838 -0.64932,0 0.97546,-0.43881 z m -50.32649,3.41558 -1.04068,1.04069 0,0.59595 3.57124,0 0,-0.59595 -1.04217,-1.04069 -1.48839,0 z m -29.16587,1.63664 1.63663,0 0,1.04069 -2.6788,0 1.04217,-1.04069 z m 121.2784,1.04069 0,2.08433 1.19042,1.33866 0.59446,0 -0.59446,-3.42299 -1.19042,0 z m -16.81552,4.01894 c -1.7857,0.19841 -2.6788,0.74378 -2.6788,1.63663 l 0,0.44622 2.6788,-0.44622 0,-1.63663 z m -3.27327,4.31543 -0.74419,0.74419 0,0.59448 0.74419,0.74418 0.59447,0 0.59595,-0.74418 0,-0.59448 -0.59595,-0.74419 -0.59447,0 z m -91.22009,1.19041 1.04217,0 0,2.23111 -1.04217,-1.19042 0,-1.04069 z m 133.92823,10.71373 -0.59595,0.59595 0,0.74271 0.59595,0.7442 1.19041,-1.48691 0,-0.59595 -1.19041,0 z m -48.36371,1.33866 0,2.08433 3.12502,-0.74418 0,-1.34015 -3.12502,0 z m 6.25004,0.7442 0,1.34013 c -1.68649,0.69444 -2.52907,1.38842 -2.52907,2.08286 l 0,0.74419 0.59446,0.59447 4.46517,-2.67732 -1.93461,-2.08433 -0.59595,0 z m -4.46368,2.6788 -1.19041,1.48838 0,2.67881 0.59446,0.74419 1.34015,-1.34015 0,-3.57123 -0.7442,0 z m -129.46305,9.52331 -0.44622,0.4477 0,0.59447 0.44622,0.59594 1.04216,-1.19041 0,-0.4477 -1.04216,0 z m 186.75413,14.88095 0,1.4884 6.25004,0 0,-1.4884 -6.25004,0 z m -99.99921,5.6555 1.04217,2.2311 -4.76166,0 c -1.78569,0 -3.32374,0.5469 -4.61341,1.6382 l -1.04217,0 c 2.08331,-2.5794 5.20844,-3.8693 9.37507,-3.8693 z m 3.57124,0 2.08285,0 1.04217,1.0407 0.59595,-0.5944 7.29073,0 0,0.5944 c -6.34914,0 -10.16826,0.3968 -11.45792,1.1904 l 0.44622,-2.2311 z m -16.51755,3.2733 0.44622,0 0,0.596 -0.44622,0.4462 -2.08285,0 0,-0.4462 2.08285,-0.596 z m 8.18465,0 3.12502,0 0,0.596 -3.12502,0 0,-0.596 z m 70.23738,2.2326 -1.04217,1.0407 0,0.5959 0.44623,0.4462 1.04216,-1.0421 0,-0.4462 -0.44622,-0.5945 z m -25.00017,5.9521 0,0.5944 1.04217,1.1919 0.59446,0 0,-0.5959 -1.04068,-1.1904 -0.59595,0 z m 3.12502,1.1904 c 0,0.6944 1.19032,1.2398 3.57124,1.6366 l 0,-1.0407 -2.52907,-0.5959 -1.04217,0 z m -34.67173,1.9346 -1.93461,2.0828 0,0.596 0.59447,0 1.93461,-2.0844 0,-0.5944 -0.59447,0 z m 40.92177,2.5291 1.04217,1.0421 0.44622,0 0,-1.0421 -1.48839,0 z m -105.50505,2.2325 -1.04068,1.0422 0,1.1904 0.59446,0 1.48839,-1.7863 0,-0.4463 -1.04217,0 z m 103.86842,6.5481 c -0.49602,0 -0.99236,0.743 -1.48839,2.2311 0.89285,2.4801 1.93456,3.9691 3.12502,4.4651 l 2.08286,0 2.08433,-1.6366 -1.04217,-3.2748 0,-0.5944 0.44622,-0.596 -5.20787,-0.5944 z m 78.71852,2.529 -1.19041,1.4884 0,0.5945 1.78636,0 0.7442,-0.5945 -1.34015,-1.4884 z m -126.48628,8.6309 0,4.4652 1.04217,0 0,-4.4652 -1.04217,0 z m 3.72096,2.2326 -3.12501,6.6962 -0.59595,0 -0.44622,-0.5959 -1.04217,1.0422 0,2.827 0.44621,0.596 -1.04068,1.0406 1.04068,3.423 -2.08285,2.6788 c 0.59524,1.8849 1.83608,2.8271 3.72098,2.8271 1.38886,1.8849 3.12456,2.827 5.20787,2.827 l 3.57124,-2.2311 0,-1.1904 -3.57124,-1.6366 0,-0.596 1.04217,0 -0.46402,-2.0828 5.82014,0 6.25004,-0.596 0,-1.4883 -6.84451,0.7442 -2.53055,-0.7442 -2.52908,0.7442 -0.29797,0 0,-0.4463 1.04216,-1.6366 0,-0.596 c -2.0833,0 -3.12502,-0.5453 -3.12502,-1.6366 l 0,-0.5945 c 1e-5,-0.5952 0.89311,-1.1406 2.67881,-1.6366 0,-0.6944 -0.54685,-1.0422 -1.63812,-1.0422 0,-1.8849 -0.34625,-2.827 -1.04069,-2.827 l 0.59447,-1.6366 -0.59447,-2.2326 -0.44622,0 z m 33.18334,2.827 -3.12501,1.6367 0,0.4462 0.59594,0.5959 c 1.68649,0 2.7282,-0.5453 3.12502,-1.6366 l 0,-0.596 -0.59595,-0.4462 z m 104.76087,2.3809 -2.52907,0.7442 0,1.3386 1.19041,0 1.33866,-1.3386 0,-0.7442 z m -116.96298,3.423 -0.59446,0.7441 0,0.7442 0.59446,0.7442 0.59595,0 0.74271,-0.7442 0,-0.7442 -0.74271,-0.7441 -0.59595,0 z m 21.42893,4.3154 0,1.3387 11.90415,0 0,-1.3387 -11.90415,0 z m 46.42762,0 0,1.3387 6.25005,0.7441 11.30967,0 0,-1.4883 -17.55972,-0.5945 z m -59.67189,0.5945 0,1.4883 2.52907,0.596 3.72097,-0.596 3.86922,0 0,-1.4883 -10.11926,0 z m 32.73712,0 0,1.4883 17.55971,0 0,-1.4883 -17.55971,0 z m 51.48873,0 0,1.4883 12.4986,0 0,-1.4883 -12.4986,0 z m 22.61786,0 0,1.4883 12.96262,0 0,-1.4883 -12.96262,0 z m -11.90413,8.3343 -0.7442,0.7427 0,0.7442 0.7442,0.7442 0.59446,0 0.59595,-0.7442 0,-0.7442 -0.59595,-0.7427 -0.59446,0 z"
         id="path4391-0"
         inkscape:connector-curvature="0" />
    </g>
    <text
       sodipodi:linespacing="125%"
       id="text4181"
       y="985.08704"
       x="775"
       xml:space="preserve"><tspan
         id="tspan4208"
         style="font-style:normal;font-variant:normal;font-weight:normal;font-stretch:ultra-condensed;font-size:5.92875147px;font-family:Antonio;-inkscape-font-specification:'Antonio Ultra-Condensed';text-align:start;text-anchor:start"
         y="985.08704"
         x="775"
         sodipodi:role="line">http://www.uncreated.net</tspan></text>
    <text
       sodipodi:linespacing="125%"
       id="text4181-6"
       y="479.80231"
       x="775.08014"
       style="font-style:normal;font-weight:normal;font-size:23.71500587px;line-height:125%;font-family:'Walkway Oblique Bold';-inkscape-font-specification:'Walkway Oblique Bold';letter-spacing:0px;word-spacing:0px;fill:#000000;fill-opacity:1;stroke:none;stroke-width:1px;stroke-linecap:butt;stroke-linejoin:miter;stroke-opacity:1"
       xml:space="preserve"><tspan
         id="tspan4208-2"
         style="font-style:normal;font-variant:normal;font-weight:normal;font-stretch:ultra-condensed;font-size:4.97561026px;font-family:Antonio;-inkscape-font-specification:'Antonio Ultra-Condensed';text-align:start;text-anchor:start"
         y="479.80231"
         x="775.08014"
         sodipodi:role="line">projeto</tspan></text>
    <text
       sodipodi:linespacing="125%"
       id="text4181-6-3"
       y="565.60004"
       x="775.08014"
       style="font-style:normal;font-weight:normal;font-size:23.71500587px;line-height:125%;font-family:'Walkway Oblique Bold';-inkscape-font-specification:'Walkway Oblique Bold';letter-spacing:0px;word-spacing:0px;fill:#000000;fill-opacity:1;stroke:none;stroke-width:1px;stroke-linecap:butt;stroke-linejoin:miter;stroke-opacity:1"
       xml:space="preserve"><tspan
         id="tspan4208-2-6"
         style="font-style:normal;font-variant:normal;font-weight:normal;font-stretch:ultra-condensed;font-size:4.97561026px;font-family:Antonio;-inkscape-font-specification:'Antonio Ultra-Condensed';text-align:start;text-anchor:start"
         y="565.60004"
         x="775.08014"
         sodipodi:role="line">folha</tspan></text>
    <text
       sodipodi:linespacing="125%"
       id="text4181-6-3-6"
       y="518.2804"
       x="775.08014"
       style="font-style:normal;font-weight:normal;font-size:23.71500587px;line-height:125%;font-family:'Walkway Oblique Bold';-inkscape-font-specification:'Walkway Oblique Bold';letter-spacing:0px;word-spacing:0px;fill:#000000;fill-opacity:1;stroke:none;stroke-width:1px;stroke-linecap:butt;stroke-linejoin:miter;stroke-opacity:1"
       xml:space="preserve"><tspan
         id="tspan4208-2-6-1"
         style="font-style:normal;font-variant:normal;font-weight:normal;font-stretch:ultra-condensed;font-size:4.97561026px;font-family:Antonio;-inkscape-font-specification:'Antonio Ultra-Condensed';text-align:start;text-anchor:start"
         y="518.2804"
         x="775.08014"
         sodipodi:role="line">número</tspan></text>
    <text
       sodipodi:linespacing="125%"
       id="text4181-6-3-6-9"
       y="542.16333"
       x="775.08014"
       style="font-style:normal;font-weight:normal;font-size:23.71500587px;line-height:125%;font-family:'Walkway Oblique Bold';-inkscape-font-specification:'Walkway Oblique Bold';letter-spacing:0px;word-spacing:0px;fill:#000000;fill-opacity:1;stroke:none;stroke-width:1px;stroke-linecap:butt;stroke-linejoin:miter;stroke-opacity:1"
       xml:space="preserve"><tspan
         id="tspan4208-2-6-1-2"
         style="font-style:normal;font-variant:normal;font-weight:normal;font-stretch:ultra-condensed;font-size:4.97561026px;font-family:Antonio;-inkscape-font-specification:'Antonio Ultra-Condensed';text-align:start;text-anchor:start"
         y="542.16333"
         x="775.08014"
         sodipodi:role="line">escala</tspan></text>
    <text
       sodipodi:linespacing="125%"
       id="text4181-3"
       y="975.33789"
       x="788.32513"
       style="font-style:normal;font-weight:normal;font-size:23.71500587px;line-height:125%;font-family:'Walkway Oblique Bold';-inkscape-font-specification:'Walkway Oblique Bold';letter-spacing:0px;word-spacing:0px;fill:#000000;fill-opacity:1;stroke:none;stroke-width:1px;stroke-linecap:butt;stroke-linejoin:miter;stroke-opacity:1"
       xml:space="preserve"><tspan
         id="tspan4208-8"
         style="font-style:normal;font-variant:normal;font-weight:normal;font-stretch:ultra-condensed;font-size:4.97561026px;font-family:Antonio;-inkscape-font-specification:'Antonio Ultra-Condensed';text-align:start;text-anchor:start"
         y="975.33789"
         x="788.32513"
         sodipodi:role="line">coletivo@uncreated.net</tspan></text>
    <text
       sodipodi:linespacing="125%"
       id="text4181-6-3-9"
       y="588.15613"
       x="775.08014"
       style="font-style:normal;font-weight:normal;font-size:23.71500587px;line-height:125%;font-family:'Walkway Oblique Bold';-inkscape-font-specification:'Walkway Oblique Bold';letter-spacing:0px;word-spacing:0px;fill:#000000;fill-opacity:1;stroke:none;stroke-width:1px;stroke-linecap:butt;stroke-linejoin:miter;stroke-opacity:1"
       xml:space="preserve"><tspan
         id="tspan4208-2-6-7"
         style="font-style:normal;font-variant:normal;font-weight:normal;font-stretch:ultra-condensed;font-size:4.97561026px;font-family:Antonio;-inkscape-font-specification:'Antonio Ultra-Condensed';text-align:start;text-anchor:start"
         y="588.15613"
         x="775.08014"
         sodipodi:role="line">data</tspan></text>
    <text
       sodipodi:linespacing="125%"
       id="text4181-6-3-9-1"
       y="610.71228"
       x="775.08014"
       style="font-style:normal;font-weight:normal;font-size:23.71500587px;line-height:125%;font-family:'Walkway Oblique Bold';-inkscape-font-specification:'Walkway Oblique Bold';letter-spacing:0px;word-spacing:0px;fill:#000000;fill-opacity:1;stroke:none;stroke-width:1px;stroke-linecap:butt;stroke-linejoin:miter;stroke-opacity:1"
       xml:space="preserve"><tspan
         id="tspan4208-2-6-7-2"
         style="font-style:normal;font-variant:normal;font-weight:normal;font-stretch:ultra-condensed;font-size:4.97561026px;font-family:Antonio;-inkscape-font-specification:'Antonio Ultra-Condensed';text-align:start;text-anchor:start"
         y="610.71228"
         x="775.08014"
         sodipodi:role="line">notas</tspan></text>
    <flowRoot
       style="fill:black;stroke:none;stroke-opacity:1;stroke-width:1px;stroke-linejoin:miter;stroke-linecap:butt;fill-opacity:1;font-family:'Fira Sans';font-style:italic;font-weight:bold;font-size:7.5px;line-height:125%;letter-spacing:0px;word-spacing:0px;-inkscape-font-specification:'Fira Sans Bold Italic';font-stretch:normal;font-variant:normal;"
       id="flowRoot4498"
       xml:space="preserve"><flowRegion
         id="flowRegion4500"><rect
           style="-inkscape-font-specification:'Fira Sans Bold Italic';font-family:'Fira Sans';font-weight:bold;font-style:italic;font-stretch:normal;font-variant:normal;font-size:7.5px;"
           y="238.93138"
           x="739.81049"
           height="187.3833"
           width="86.350243"
           id="rect4502" /></flowRegion><flowPara
         id="flowPara4504" /></flowRoot>    <text
       sodipodi:linespacing="125%"
       id="text4181-3-3"
       y="957.01385"
       x="810.53943"
       style="font-style:normal;font-weight:normal;font-size:23.71500587px;line-height:125%;font-family:'Walkway Oblique Bold';-inkscape-font-specification:'Walkway Oblique Bold';letter-spacing:0px;word-spacing:0px;fill:#000000;fill-opacity:1;stroke:none;stroke-width:1px;stroke-linecap:butt;stroke-linejoin:miter;stroke-opacity:1"
       xml:space="preserve"><tspan
         style="font-style:normal;font-variant:normal;font-weight:normal;font-stretch:ultra-condensed;font-size:4.97561026px;font-family:Antonio;-inkscape-font-specification:'Antonio Ultra-Condensed';text-align:start;text-anchor:start"
         y="957.01385"
         x="810.53943"
         id="tspan4183-7-6"
         sodipodi:role="line">Maíra Zasso</tspan><tspan
         id="tspan4208-8-3"
         style="font-style:normal;font-variant:normal;font-weight:normal;font-stretch:ultra-condensed;font-size:4.97561026px;font-family:Antonio;-inkscape-font-specification:'Antonio Ultra-Condensed';text-align:end;text-anchor:end"
         y="963.23334"
         x="810.53943"
         sodipodi:role="line" /></text>
    <text
       sodipodi:linespacing="125%"
       id="text4181-3-5"
       y="963.10706"
       x="804.27863"
       style="font-style:normal;font-weight:normal;font-size:23.71500587px;line-height:125%;font-family:'Walkway Oblique Bold';-inkscape-font-specification:'Walkway Oblique Bold';letter-spacing:0px;word-spacing:0px;fill:#000000;fill-opacity:1;stroke:none;stroke-width:1px;stroke-linecap:butt;stroke-linejoin:miter;stroke-opacity:1"
       xml:space="preserve"><tspan
         id="tspan4208-8-2"
         style="font-style:normal;font-variant:normal;font-weight:normal;font-stretch:ultra-condensed;font-size:4.97561026px;font-family:Antonio;-inkscape-font-specification:'Antonio Ultra-Condensed';text-align:start;text-anchor:start"
         y="963.10706"
         x="804.27863"
         sodipodi:role="line">Yorik van Havre</tspan></text>
    <text
       sodipodi:linespacing="125%"
       id="text4181-3-7"
       y="969.30219"
       x="803.57513"
       style="font-style:normal;font-weight:normal;font-size:23.71500587px;line-height:125%;font-family:'Walkway Oblique Bold';-inkscape-font-specification:'Walkway Oblique Bold';letter-spacing:0px;word-spacing:0px;fill:#000000;fill-opacity:1;stroke:none;stroke-width:1px;stroke-linecap:butt;stroke-linejoin:miter;stroke-opacity:1"
       xml:space="preserve"><tspan
         id="tspan4208-8-6"
         style="font-style:normal;font-variant:normal;font-weight:normal;font-stretch:ultra-condensed;font-size:4.97561026px;font-family:Antonio;-inkscape-font-specification:'Antonio Ultra-Condensed';text-align:start;text-anchor:start"
         y="969.30219"
         x="803.57513"
         sodipodi:role="line">+5511 3214 6330</tspan></text>
    <text
       sodipodi:linespacing="125%"
       id="text4298"
       y="618.40576"
       x="775.11841"
       style="font-style:normal;font-size:5px;font-family:'Fira Sans';"
       xml:space="preserve"><tspan
         id="tspan4300"
         y="618.40576"
         x="775.11841"
         sodipodi:role="line"><tspan
           id="tspan4302"
           
           y="618.40576"
           x="775.11841">Este projeto é aberto e </tspan></tspan></text>
    <text
       sodipodi:linespacing="125%"
       id="text5097"
       y="624.65576"
       x="775.11841"
       style="font-style:normal;font-size:5px;font-family:'Fira Sans';"
       xml:space="preserve"><tspan
         id="tspan4304"
         y="624.65576"
         x="775.11841"
         sodipodi:role="line"><tspan
           id="tspan4306"
           
           y="624.65576"
           x="775.11841">publicado sob licença </tspan></tspan></text>
    <text
       sodipodi:linespacing="125%"
       id="text5101"
       y="630.90576"
       x="775.11841"
       style="font-style:normal;font-size:5px;font-family:'Fira Sans';"
       xml:space="preserve"><tspan
         id="tspan4308"
         y="630.90576"
         x="775.11841"
         sodipodi:role="line"><tspan
           id="tspan4310"
           
           y="630.90576"
           x="775.11841">Creative Commons 4.0 </tspan></tspan></text>
    <text
       sodipodi:linespacing="125%"
       id="text5105"
       y="637.15576"
       x="775.11841"
       style="font-style:normal;font-size:5px;font-family:'Fira Sans';"
       xml:space="preserve"><tspan
         id="tspan4312"
         y="637.15576"
         x="775.11841"
         sodipodi:role="line"><tspan
           id="tspan4314"
           
           y="637.15576"
           x="775.11841">BY. Você pode usar, </tspan></tspan></text>
    <text
       sodipodi:linespacing="125%"
       id="text5109"
       y="643.40576"
       x="775.11841"
       style="font-style:normal;font-size:5px;font-family:'Fira Sans';"
       xml:space="preserve"><tspan
         id="tspan4316"
         y="643.40576"
         x="775.11841"
         sodipodi:role="line"><tspan
           id="tspan4318"
           
           y="643.40576"
           x="775.11841">compartilhar, copiar, </tspan></tspan></text>
    <text
       sodipodi:linespacing="125%"
       id="text5113"
       y="649.65582"
       x="775.11841"
       style="font-style:normal;font-size:5px;font-family:'Fira Sans';"
       xml:space="preserve"><tspan
         id="tspan4320"
         y="649.65582"
         x="775.11841"
         sodipodi:role="line"><tspan
           id="tspan4322"
           
           y="649.65582"
           x="775.11841">modificar, redestribuir </tspan></tspan></text>
    <text
       sodipodi:linespacing="125%"
       id="text5117"
       y="655.90582"
       x="775.11841"
       style="font-style:normal;font-size:5px;font-family:'Fira Sans';"
       xml:space="preserve"><tspan
         id="tspan4324"
         y="655.90582"
         x="775.11841"
         sodipodi:role="line"><tspan
           id="tspan4326"
           
           y="655.90582"
           x="775.11841">este projeto, e usar ele </tspan></tspan></text>
    <text
       sodipodi:linespacing="125%"
       id="text5121"
       y="662.15582"
       x="775.11841"
       style="font-style:normal;font-size:5px;font-family:'Fira Sans';"
       xml:space="preserve"><tspan
         id="tspan4328"
         y="662.15582"
         x="775.11841"
         sodipodi:role="line"><tspan
           id="tspan4330"
           
           y="662.15582"
           x="775.11841">para construir.</tspan><tspan
           id="tspan4332"
           
           y="662.15582"
           x="807.87238"
           dx="0" /></tspan></text>
    <text
       sodipodi:linespacing="125%"
       id="text5126"
       y="668.40582"
       x="775.11841"
       style="font-style:normal;font-size:5px;font-family:'Fira Sans';"
       xml:space="preserve"><tspan
         id="tspan4334"
         y="668.40582"
         x="775.11841"
         sodipodi:role="line"><tspan
           id="tspan4336"
           
           y="668.40582"
           x="775.11841" /></tspan></text>
    <text
       sodipodi:linespacing="125%"
       id="text5130"
       y="674.65582"
       x="775.11841"
       style="font-style:normal;font-size:5px;font-family:'Fira Sans';"
       xml:space="preserve"><tspan
         id="tspan4338"
         y="674.65582"
         x="775.11841"
         sodipodi:role="line"><tspan
           id="tspan4340"
           
           y="674.65582"
           x="775.11841">No entanto, as condições </tspan></tspan></text>
    <text
       sodipodi:linespacing="125%"
       id="text5134"
       y="680.90582"
       x="775.11841"
       style="font-style:normal;font-size:5px;font-family:'Fira Sans';"
       xml:space="preserve"><tspan
         id="tspan4342"
         y="680.90582"
         x="775.11841"
         sodipodi:role="line"><tspan
           id="tspan4344"
           
           y="680.90582"
           x="775.11841">do seu terreno, ou as </tspan></tspan></text>
    <text
       sodipodi:linespacing="125%"
       id="text5138"
       y="687.15582"
       x="775.11841"
       style="font-style:normal;font-size:5px;font-family:'Fira Sans';"
       xml:space="preserve"><tspan
         id="tspan4346"
         y="687.15582"
         x="775.11841"
         sodipodi:role="line"><tspan
           id="tspan4348"
           
           y="687.15582"
           x="775.11841">técnicas construtivas </tspan></tspan></text>
    <text
       sodipodi:linespacing="125%"
       id="text5142"
       y="693.40582"
       x="775.11841"
       style="font-style:normal;font-size:5px;font-family:'Fira Sans';"
       xml:space="preserve"><tspan
         id="tspan4350"
         y="693.40582"
         x="775.11841"
         sodipodi:role="line"><tspan
           id="tspan4352"
           
           y="693.40582"
           x="775.11841">disponíveis podem </tspan></tspan></text>
    <text
       sodipodi:linespacing="125%"
       id="text5146"
       y="699.65582"
       x="775.11841"
       style="font-style:normal;font-size:5px;font-family:'Fira Sans';"
       xml:space="preserve"><tspan
         id="tspan4354"
         y="699.65582"
         x="775.11841"
         sodipodi:role="line"><tspan
           id="tspan4356"
           
           y="699.65582"
           x="775.11841">tornar muito perigosa </tspan></tspan></text>
    <text
       sodipodi:linespacing="125%"
       id="text5150"
       y="705.90582"
       x="775.11841"
       style="font-style:normal;font-size:5px;font-family:'Fira Sans';"
       xml:space="preserve"><tspan
         id="tspan4358"
         y="705.90582"
         x="775.11841"
         sodipodi:role="line"><tspan
           id="tspan4360"
           
           y="705.90582"
           x="775.11841">uma construção baseada </tspan></tspan></text>
    <text
       sodipodi:linespacing="125%"
       id="text5154"
       y="712.15582"
       x="775.11841"
       style="font-style:normal;font-size:5px;font-family:'Fira Sans';"
       xml:space="preserve"><tspan
         id="tspan4362"
         y="712.15582"
         x="775.11841"
         sodipodi:role="line"><tspan
           id="tspan4364"
           
           y="712.15582"
           x="775.11841">somente nas </tspan></tspan></text>
    <text
       sodipodi:linespacing="125%"
       id="text5158"
       y="718.40582"
       x="775.11841"
       style="font-style:normal;font-size:5px;font-family:'Fira Sans';"
       xml:space="preserve"><tspan
         id="tspan4366"
         y="718.40582"
         x="775.11841"
         sodipodi:role="line"><tspan
           id="tspan4368"
           
           y="718.40582"
           x="775.11841">informações contidas </tspan></tspan></text>
    <text
       sodipodi:linespacing="125%"
       id="text5162"
       y="724.65582"
       x="775.11841"
       style="font-style:normal;font-size:5px;font-family:'Fira Sans';"
       xml:space="preserve"><tspan
         id="tspan4370"
         y="724.65582"
         x="775.11841"
         sodipodi:role="line"><tspan
           id="tspan4372"
           
           y="724.65582"
           x="775.11841">neste documento. Você </tspan></tspan></text>
    <text
       sodipodi:linespacing="125%"
       id="text5166"
       y="730.90582"
       x="775.11841"
       style="font-style:normal;font-size:5px;font-family:'Fira Sans';"
       xml:space="preserve"><tspan
         id="tspan4374"
         y="730.90582"
         x="775.11841"
         sodipodi:role="line"><tspan
           id="tspan4376"
           
           y="730.90582"
           x="775.11841">não deve nunca </tspan></tspan></text>
    <text
       sodipodi:linespacing="125%"
       id="text5170"
       y="737.15582"
       x="775.11841"
       style="font-style:normal;font-size:5px;font-family:'Fira Sans';"
       xml:space="preserve"><tspan
         id="tspan4378"
         y="737.15582"
         x="775.11841"
         sodipodi:role="line"><tspan
           id="tspan4380"
           
           y="737.15582"
           x="775.11841">construir nada baseado </tspan></tspan></text>
    <text
       sodipodi:linespacing="125%"
       id="text5174"
       y="743.40582"
       x="775.11841"
       style="font-style:normal;font-size:5px;font-family:'Fira Sans';"
       xml:space="preserve"><tspan
         id="tspan4382"
         y="743.40582"
         x="775.11841"
         sodipodi:role="line"><tspan
           id="tspan4384"
           
           y="743.40582"
           x="775.11841">neste documento sem a </tspan></tspan></text>
    <text
       sodipodi:linespacing="125%"
       id="text5178"
       y="749.65582"
       x="775.11841"
       style="font-style:normal;font-size:5px;font-family:'Fira Sans';"
       xml:space="preserve"><tspan
         id="tspan4386"
         y="749.65582"
         x="775.11841"
         sodipodi:role="line"><tspan
           id="tspan4388"
           
           y="749.65582"
           x="775.11841">supervisão de um </tspan></tspan></text>
    <text
       sodipodi:linespacing="125%"
       id="text5182"
       y="755.90582"
       x="775.11841"
       style="font-style:normal;font-size:5px;font-family:'Fira Sans';"
       xml:space="preserve"><tspan
         id="tspan4390"
         y="755.90582"
         x="775.11841"
         sodipodi:role="line"><tspan
           id="tspan4392"
           
           y="755.90582"
           x="775.11841">arquiteto ou engenheiro.</tspan><tspan
           id="tspan4394"
           
           y="755.90582"
           x="831.30981"
           dx="0" /></tspan></text>
    <text
       sodipodi:linespacing="125%"
       id="text5187"
       y="762.15582"
       x="775.11841"
       style="font-style:normal;font-size:5px;font-family:'Fira Sans';"
       xml:space="preserve"><tspan
         id="tspan4396"
         y="762.15582"
         x="775.11841"
         sodipodi:role="line"><tspan
           id="tspan4398"
           
           y="762.15582"
           x="775.11841" /></tspan></text>
    <text
       sodipodi:linespacing="125%"
       id="text5191"
       y="768.40588"
       x="775.11841"
       style="font-style:normal;font-size:5px;font-family:'Fira Sans';"
       xml:space="preserve"><tspan
         id="tspan4400"
         y="768.40588"
         x="775.11841"
         sodipodi:role="line"><tspan
           id="tspan4402"
           
           y="768.40588"
           x="775.11841">Os autores deste projeto </tspan></tspan></text>
    <text
       sodipodi:linespacing="125%"
       id="text5195"
       y="774.65588"
       x="775.11841"
       style="font-style:normal;font-size:5px;font-family:'Fira Sans';"
       xml:space="preserve"><tspan
         id="tspan4404"
         y="774.65588"
         x="775.11841"
         sodipodi:role="line"><tspan
           id="tspan4406"
           
           y="774.65588"
           x="775.11841">não podem ser </tspan></tspan></text>
    <text
       sodipodi:linespacing="125%"
       id="text5199"
       y="780.90588"
       x="775.11841"
       style="font-style:normal;font-size:5px;font-family:'Fira Sans';"
       xml:space="preserve"><tspan
         id="tspan4408"
         y="780.90588"
         x="775.11841"
         sodipodi:role="line"><tspan
           id="tspan4410"
           
           y="780.90588"
           x="775.11841">responsabilizados por </tspan></tspan></text>
    <text
       sodipodi:linespacing="125%"
       id="text5203"
       y="787.15588"
       x="775.11841"
       style="font-style:normal;font-size:5px;font-family:'Fira Sans';"
       xml:space="preserve"><tspan
         id="tspan4412"
         y="787.15588"
         x="775.11841"
         sodipodi:role="line"><tspan
           id="tspan4414"
           
           y="787.15588"
           x="775.11841">problemas causados </tspan></tspan></text>
    <text
       sodipodi:linespacing="125%"
       id="text5207"
       y="793.40588"
       x="775.11841"
       style="font-style:normal;font-size:5px;font-family:'Fira Sans';"
       xml:space="preserve"><tspan
         id="tspan4416"
         y="793.40588"
         x="775.11841"
         sodipodi:role="line"><tspan
           id="tspan4418"
           
           y="793.40588"
           x="775.11841">pelo uso deste </tspan></tspan></text>
    <text
       sodipodi:linespacing="125%"
       id="text5211"
       y="799.65588"
       x="775.11841"
       style="font-style:normal;font-size:5px;font-family:'Fira Sans';"
       xml:space="preserve"><tspan
         id="tspan4420"
         y="799.65588"
         x="775.11841"
         sodipodi:role="line"><tspan
           id="tspan4422"
           
           y="799.65588"
           x="775.11841">documento.</tspan><tspan
           id="tspan4424"
           
           y="799.65588"
           x="801.96411"
           dx="0" /></tspan></text>
    <text
       sodipodi:linespacing="125%"
       id="text5216"
       y="805.90588"
       x="775.11841"
       style="font-style:normal;font-size:5px;font-family:'Fira Sans';"
       xml:space="preserve"><tspan
         id="tspan4426"
         y="805.90588"
         x="775.11841"
         sodipodi:role="line"><tspan
           id="tspan4428"
           
           y="805.90588"
           x="775.11841" /></tspan></text>
    <text
       sodipodi:linespacing="125%"
       id="text5220"
       y="812.15588"
       x="775.11841"
       style="font-style:normal;font-size:5px;font-family:'Fira Sans';"
       xml:space="preserve"><tspan
         id="tspan4430"
         y="812.15588"
         x="775.11841"
         sodipodi:role="line"><tspan
           id="tspan4432"
           
           y="812.15588"
           x="775.11841">Se você fizer alguma </tspan></tspan></text>
    <text
       sodipodi:linespacing="125%"
       id="text5224"
       y="818.40588"
       x="775.11841"
       style="font-style:normal;font-size:5px;font-family:'Fira Sans';"
       xml:space="preserve"><tspan
         id="tspan4434"
         y="818.40588"
         x="775.11841"
         sodipodi:role="line"><tspan
           id="tspan4436"
           
           y="818.40588"
           x="775.11841">melhoria neste projeto, </tspan></tspan></text>
    <text
       sodipodi:linespacing="125%"
       id="text5228"
       y="824.65588"
       x="775.11841"
       style="font-style:normal;font-size:5px;font-family:'Fira Sans';"
       xml:space="preserve"><tspan
         id="tspan4438"
         y="824.65588"
         x="775.11841"
         sodipodi:role="line"><tspan
           id="tspan4440"
           
           y="824.65588"
           x="775.11841">por favor considere </tspan></tspan></text>
    <text
       sodipodi:linespacing="125%"
       id="text5232"
       y="830.90588"
       x="775.11841"
       style="font-style:normal;font-size:5px;font-family:'Fira Sans';"
       xml:space="preserve"><tspan
         id="tspan4442"
         y="830.90588"
         x="775.11841"
         sodipodi:role="line"><tspan
           id="tspan4444"
           
           y="830.90588"
           x="775.11841">compartilha-las com os </tspan></tspan></text>
    <text
       sodipodi:linespacing="125%"
       id="text5236"
       y="837.15588"
       x="775.11841"
       style="font-style:normal;font-size:5px;font-family:'Fira Sans';"
       xml:space="preserve"><tspan
         id="tspan4446"
         y="837.15588"
         x="775.11841"
         sodipodi:role="line"><tspan
           id="tspan4448"
           
           y="837.15588"
           x="775.11841">autores originais, para </tspan></tspan></text>
    <text
       sodipodi:linespacing="125%"
       id="text5240"
       y="843.40594"
       x="775.11841"
       style="font-style:normal;font-size:5px;font-family:'Fira Sans';"
       xml:space="preserve"><tspan
         id="tspan4450"
         y="843.40594"
         x="775.11841"
         sodipodi:role="line"><tspan
           id="tspan4452"
           
           y="843.40594"
           x="775.11841">que outros possam </tspan></tspan></text>
    <text
       sodipodi:linespacing="125%"
       id="text5244"
       y="849.65594"
       x="775.11841"
       style="font-style:normal;font-size:5px;font-family:'Fira Sans';"
       xml:space="preserve"><tspan
         id="tspan4454"
         y="849.65594"
         x="775.11841"
         sodipodi:role="line"><tspan
           id="tspan4456"
           y="849.65594"
           x="775.11841">aproveitá-las tambem.</tspan></tspan></text>
  </g>
  <text
     style="font-size:7.9609766px;line-height:125%"
     sodipodi:linespacing="125%"
     id="text4181-6-9"
     y="37.086143"
     x="775.08014"
     xml:space="preserve"
     freecad:editable="TITLE"><tspan
       y="37.086143"
       x="775.08014"
       id="tspan4208-2-1"
       style="font-style:normal;font-variant:normal;font-weight:normal;font-stretch:ultra-condensed;font-size:11.60975742px;font-family:Antonio;-inkscape-font-specification:'Antonio Ultra-Condensed';text-align:start;text-anchor:start"
       sodipodi:role="line">title</tspan></text>
  <text
     style="font-size:7.9609766px;line-height:125%"
     sodipodi:linespacing="125%"
     id="text4181-6-9-0"
     y="50.354439"
     x="775.08014"
     xml:space="preserve"
     freecad:editable="SUBTITLE"><tspan
       y="50.354439"
       x="775.08014"
       id="tspan4208-2-1-9"
       style="font-style:normal;font-variant:normal;font-weight:normal;font-stretch:ultra-condensed;font-size:11.60975742px;font-family:Antonio;-inkscape-font-specification:'Antonio Ultra-Condensed';text-align:start;text-anchor:start"
       sodipodi:role="line">subtitle</tspan></text>
  <text
     sodipodi:linespacing="125%"
     id="text4181-6-9-06-8"
     y="74.237358"
     x="775.08014"
     style="font-style:normal;font-weight:normal;font-size:23.71500587px;line-height:125%;font-family:'Walkway Oblique Bold';-inkscape-font-specification:'Walkway Oblique Bold';letter-spacing:0px;word-spacing:0px;fill:#000000;fill-opacity:1;stroke:none;stroke-width:1px;stroke-linecap:butt;stroke-linejoin:miter;stroke-opacity:1"
     xml:space="preserve"
     freecad:editable="NUMBER"><tspan
       y="74.237358"
       x="775.08014"
       id="tspan4208-2-1-2-7"
       style="font-style:normal;font-variant:normal;font-weight:normal;font-stretch:ultra-condensed;font-size:11.60975742px;font-family:Antonio;-inkscape-font-specification:'Antonio Ultra-Condensed';text-align:start;text-anchor:start"
       sodipodi:role="line">01 / 01</tspan></text>
  <text
     sodipodi:linespacing="125%"
     id="text4181-6-9-06-8-0"
     y="97.456871"
     x="775.08014"
     style="font-style:normal;font-weight:normal;font-size:23.71500587px;line-height:125%;font-family:'Walkway Oblique Bold';-inkscape-font-specification:'Walkway Oblique Bold';letter-spacing:0px;word-spacing:0px;fill:#000000;fill-opacity:1;stroke:none;stroke-width:1px;stroke-linecap:butt;stroke-linejoin:miter;stroke-opacity:1"
     xml:space="preserve"
     freecad:editable="SCALE"><tspan
       y="97.456871"
       x="775.08014"
       id="tspan4208-2-1-2-7-2"
       style="font-style:normal;font-variant:normal;font-weight:normal;font-stretch:ultra-condensed;font-size:11.60975742px;font-family:Antonio;-inkscape-font-specification:'Antonio Ultra-Condensed';text-align:start;text-anchor:start"
       sodipodi:role="line">1:100</tspan></text>
  <text
     sodipodi:linespacing="125%"
     id="text4181-6-9-06"
     y="120.67638"
     x="775.08014"
     style="font-style:normal;font-weight:normal;font-size:23.71500587px;line-height:125%;font-family:'Walkway Oblique Bold';-inkscape-font-specification:'Walkway Oblique Bold';letter-spacing:0px;word-spacing:0px;fill:#000000;fill-opacity:1;stroke:none;stroke-width:1px;stroke-linecap:butt;stroke-linejoin:miter;stroke-opacity:1"
     xml:space="preserve"
     freecad:editable="PROJECT"><tspan
       y="120.67638"
       x="775.08014"
       id="tspan4208-2-1-2"
       style="font-style:normal;font-variant:normal;font-weight:normal;font-stretch:ultra-condensed;font-size:11.60975742px;font-family:Antonio;-inkscape-font-specification:'Antonio Ultra-Condensed';text-align:start;text-anchor:start"
       sodipodi:role="line">project</tspan></text>
  <text
     sodipodi:linespacing="125%"
     id="text4181-6-9-06-3"
     y="144.55933"
     x="775.08014"
     style="font-style:normal;font-weight:normal;font-size:23.71500587px;line-height:125%;font-family:'Walkway Oblique Bold';-inkscape-font-specification:'Walkway Oblique Bold';letter-spacing:0px;word-spacing:0px;fill:#000000;fill-opacity:1;stroke:none;stroke-width:1px;stroke-linecap:butt;stroke-linejoin:miter;stroke-opacity:1"
     xml:space="preserve"
     freecad:editable="DATE"><tspan
       y="144.55933"
       x="775.08014"
       id="tspan4208-2-1-2-6"
       style="font-style:normal;font-variant:normal;font-weight:normal;font-stretch:ultra-condensed;font-size:11.60975742px;font-family:Antonio;-inkscape-font-specification:'Antonio Ultra-Condensed';text-align:start;text-anchor:start"
       sodipodi:role="line">28 oct 2016</tspan></text>
  <!-- DrawingContent -->
</svg>
